<?xml version="1.0" standalone="no"?><!DOCTYPE svg PUBLIC "-//W3C//DTD SVG 1.1//EN" "http://www.w3.org/Graphics/SVG/1.1/DTD/svg11.dtd"><svg t="1682307195277" class="icon" viewBox="0 0 1024 1024" version="1.1" xmlns="http://www.w3.org/2000/svg" p-id="4859" xmlns:xlink="http://www.w3.org/1999/xlink" width="200" height="200"><path d="M0 0h1024v1024H0V0z" fill="#202425" opacity=".01" p-id="4860"></path><path d="M68.266667 204.8a68.266667 68.266667 0 0 1 68.266666-68.266667h750.933334a68.266667 68.266667 0 0 1 68.266666 68.266667v119.466667a17.066667 17.066667 0 0 1-17.066666 17.066666h-853.333334a17.066667 17.066667 0 0 1-17.066666-17.066666V204.8z" fill="#FFAA44" p-id="4861"></path><path d="M68.266667 392.533333a17.066667 17.066667 0 0 1 17.066666-17.066666h853.333334a17.066667 17.066667 0 0 1 17.066666 17.066666V819.2a68.266667 68.266667 0 0 1-68.266666 68.266667H136.533333a68.266667 68.266667 0 0 1-68.266666-68.266667V392.533333z" fill="#11AA66" p-id="4862"></path><path d="M546.133333 716.8a34.133333 34.133333 0 0 1 34.133334-34.133333h204.8a34.133333 34.133333 0 1 1 0 68.266666h-204.8a34.133333 34.133333 0 0 1-34.133334-34.133333z" fill="#FFFFFF" p-id="4863"></path></svg>