<?xml version="1.0" standalone="no"?><!DOCTYPE svg PUBLIC "-//W3C//DTD SVG 1.1//EN" "http://www.w3.org/Graphics/SVG/1.1/DTD/svg11.dtd"><svg t="1682044450974" class="icon" viewBox="0 0 1024 1024" version="1.1" xmlns="http://www.w3.org/2000/svg" p-id="8344" xmlns:xlink="http://www.w3.org/1999/xlink" width="200" height="200"><path d="M127.921872 127.921872h768.156256v768.156256H127.921872z" fill="#3D5AFE" p-id="8345"></path><path d="M171.673652 171.673652h680.652696v680.652696H171.673652z" fill="#EEEEEE" p-id="8346"></path><path d="M223.967447 656.068362H800.032553v31.876297H223.967447zM223.967447 783.990234H800.032553v32.084639H223.967447z" fill="#212121" p-id="8347"></path><path d="M397.099491 333.763581c0 57.085656 46.251882 103.337538 103.337539 103.337538 57.085656 0 103.337538-46.251882 103.337538-103.337538 0-57.085656-46.251882-103.337538-103.337538-103.337538-57.085656 0-103.337538 46.251882-103.337539 103.337538z m172.298678 103.337538h-137.922279c-56.877314 0-103.337538 31.04293-103.337538 68.961139V575.023398h344.597355v-68.96114c0-37.91821-46.460224-68.961139-103.337538-68.961139z" fill="#EF5350" p-id="8348"></path><path d="M216.2588 748.155443h591.4824v66.877721H216.2588zM216.2588 628.15056h591.4824v66.877721H216.2588z" fill="#26A69A" p-id="8349"></path></svg>