<?xml version="1.0" standalone="no"?><!DOCTYPE svg PUBLIC "-//W3C//DTD SVG 1.1//EN" "http://www.w3.org/Graphics/SVG/1.1/DTD/svg11.dtd"><svg t="1682044374426" class="icon" viewBox="0 0 1024 1024" version="1.1" xmlns="http://www.w3.org/2000/svg" p-id="4707" xmlns:xlink="http://www.w3.org/1999/xlink" width="200" height="200"><path d="M232.430769 133.923446H177.292308a39.384615 39.384615 0 0 0-39.384616 39.384616v118.153846h787.692308v-118.153846a39.384615 39.384615 0 0 0-39.384615-39.384616h-55.138462" fill="#FF5252" p-id="4708"></path><path d="M137.907692 441.123446h787.692308v118.153846h-787.692308z" fill="#FFD740" p-id="4709"></path><path d="M287.569231 212.692677a23.630769 23.630769 0 0 1-23.630769-23.630769v-110.276923a23.630769 23.630769 0 0 1 47.261538 0v110.276923a23.630769 23.630769 0 0 1-23.630769 23.630769z" fill="#FFFFFF" p-id="4710"></path><path d="M287.569231 220.5696c-17.376492 0-31.507692-14.1312-31.507693-31.507692v-110.276923c0-17.376492 14.1312-31.507692 31.507693-31.507693s31.507692 14.1312 31.507692 31.507693v110.276923c0 17.376492-14.1312 31.507692-31.507692 31.507692z m0-157.538462c-8.680369 0-15.753846 7.057723-15.753846 15.753847v110.276923a15.7696 15.7696 0 0 0 31.507692 0v-110.276923c0-8.696123-7.073477-15.753846-15.753846-15.753847z" fill="#263238" p-id="4711"></path><path d="M531.753846 212.692677a23.630769 23.630769 0 0 1-23.630769-23.630769v-110.276923a23.630769 23.630769 0 0 1 47.261538 0v110.276923a23.630769 23.630769 0 0 1-23.630769 23.630769z" fill="#FFFFFF" p-id="4712"></path><path d="M531.753846 220.5696c-17.376492 0-31.507692-14.1312-31.507692-31.507692v-110.276923c0-17.376492 14.1312-31.507692 31.507692-31.507693s31.507692 14.1312 31.507692 31.507693v110.276923c0 17.376492-14.1312 31.507692-31.507692 31.507692z m0-157.538462c-8.680369 0-15.753846 7.057723-15.753846 15.753847v110.276923a15.7696 15.7696 0 0 0 31.507692 0v-110.276923a15.753846 15.753846 0 0 0-15.753846-15.753847z" fill="#263238" p-id="4713"></path><path d="M775.938462 212.692677a23.630769 23.630769 0 0 1-23.63077-23.630769v-110.276923a23.630769 23.630769 0 0 1 47.261539 0v110.276923a23.630769 23.630769 0 0 1-23.630769 23.630769z" fill="#FFFFFF" p-id="4714"></path><path d="M775.938462 220.5696c-17.376492 0-31.507692-14.1312-31.507693-31.507692v-110.276923c0-17.376492 14.1312-31.507692 31.507693-31.507693s31.507692 14.1312 31.507692 31.507693v110.276923c0 17.376492-14.1312 31.507692-31.507692 31.507692z m0-157.538462a15.753846 15.753846 0 0 0-15.753847 15.753847v110.276923a15.753846 15.753846 0 0 0 31.507693 0v-110.276923a15.753846 15.753846 0 0 0-15.753846-15.753847zM476.615385 141.800369h-133.907693a7.876923 7.876923 0 0 1 0-15.753846H476.615385a7.876923 7.876923 0 0 1 0 15.753846zM720.8 141.800369H586.892308a7.876923 7.876923 0 0 1 0-15.753846h133.907692a7.876923 7.876923 0 0 1 0 15.753846z" fill="#263238" p-id="4715"></path><path d="M925.6 299.338831h-787.692308a7.876923 7.876923 0 0 1-7.876923-7.876923v-118.153846c0-26.056862 21.204677-47.261538 47.261539-47.261539h55.138461a7.876923 7.876923 0 0 1 0 15.753846H177.292308c-17.376492 0-31.507692 14.1312-31.507693 31.507693v110.276923h771.938462v-110.276923c0-17.376492-14.1312-31.507692-31.507692-31.507693h-55.138462a7.876923 7.876923 0 0 1 0-15.753846H886.215385c26.056862 0 47.261538 21.204677 47.261538 47.261539v118.153846a7.876923 7.876923 0 0 1-7.876923 7.876923zM589.145108 834.9696H177.292308c-26.056862 0-47.261538-21.204677-47.261539-47.261538v-464.738462a7.876923 7.876923 0 0 1 15.753846 0v464.738462c0 17.376492 14.1312 31.507692 31.507693 31.507692h411.8528a7.876923 7.876923 0 0 1 0 15.753846z" fill="#263238" p-id="4716"></path><path d="M334.830769 834.9696a7.876923 7.876923 0 0 1-7.876923-7.876923v-504.123077a7.876923 7.876923 0 0 1 15.753846 0v504.123077a7.876923 7.876923 0 0 1-7.876923 7.876923zM531.753846 834.9696a7.876923 7.876923 0 0 1-7.876923-7.876923v-504.123077a7.876923 7.876923 0 0 1 15.753846 0v504.123077a7.876923 7.876923 0 0 1-7.876923 7.876923zM728.676923 597.417354a7.876923 7.876923 0 0 1-7.876923-7.876923V322.9696a7.876923 7.876923 0 0 1 15.753846 0v266.570831a7.876923 7.876923 0 0 1-7.876923 7.876923zM925.6 617.219938a7.876923 7.876923 0 0 1-7.876923-7.876923V322.9696a7.876923 7.876923 0 0 1 15.753846 0v286.373415a7.876923 7.876923 0 0 1-7.876923 7.876923z" fill="#263238" p-id="4717"></path><path d="M925.6 449.000369h-787.692308a7.876923 7.876923 0 0 1 0-15.753846h787.692308a7.876923 7.876923 0 0 1 0 15.753846zM925.6 567.154215h-787.692308a7.876923 7.876923 0 0 1 0-15.753846h787.692308a7.876923 7.876923 0 0 1 0 15.753846zM621.204185 685.308062H137.907692a7.876923 7.876923 0 0 1 0-15.753847h483.296493a7.876923 7.876923 0 0 1 0 15.753847zM82.769231 157.554215H19.753846a7.876923 7.876923 0 0 1 0-15.753846h63.015385a7.876923 7.876923 0 0 1 0 15.753846z" fill="#263238" p-id="4718"></path><path d="M51.261538 189.061908a7.876923 7.876923 0 0 1-7.876923-7.876923v-63.015385a7.876923 7.876923 0 0 1 15.753847 0v63.015385a7.876923 7.876923 0 0 1-7.876924 7.876923zM516 913.738831h-31.507692a7.876923 7.876923 0 0 1 0-15.753846h31.507692a7.876923 7.876923 0 0 1 0 15.753846zM452.984615 913.738831h-236.307692a7.876923 7.876923 0 0 1 0-15.753846h236.307692a7.876923 7.876923 0 0 1 0 15.753846z" fill="#263238" p-id="4719"></path><path d="M807.446154 795.584985m-189.046154 0a189.046154 189.046154 0 1 0 378.092308 0 189.046154 189.046154 0 1 0-378.092308 0Z" fill="#40C4FF" p-id="4720"></path><path d="M807.446154 992.508062c-108.591262 0-196.923077-88.331815-196.923077-196.923077s88.331815-196.923077 196.923077-196.923077 196.923077 88.331815 196.923077 196.923077-88.331815 196.923077-196.923077 196.923077z m0-378.092308c-99.895138 0-181.169231 81.274092-181.169231 181.169231s81.274092 181.169231 181.169231 181.16923 181.169231-81.274092 181.169231-181.16923-81.274092-181.169231-181.169231-181.169231z" fill="#263238" p-id="4721"></path><path d="M807.446154 795.584985m-141.784616 0a141.784615 141.784615 0 1 0 283.569231 0 141.784615 141.784615 0 1 0-283.569231 0Z" fill="#FFFFFF" p-id="4722"></path><path d="M807.446154 945.246523c-82.518646 0-149.661538-67.142892-149.661539-149.661538s67.142892-149.661538 149.661539-149.661539 149.661538 67.142892 149.661538 149.661539-67.142892 149.661538-149.661538 149.661538z m0-283.569231c-73.838277 0-133.907692 60.069415-133.907692 133.907693s60.069415 133.907692 133.907692 133.907692 133.907692-60.069415 133.907692-133.907692-60.069415-133.907692-133.907692-133.907693z" fill="#263238" p-id="4723"></path><path d="M807.446154 819.215754h-78.769231a7.876923 7.876923 0 0 1 0-15.753846h70.892308v-86.646154a7.876923 7.876923 0 0 1 15.753846 0v94.523077a7.876923 7.876923 0 0 1-7.876923 7.876923z" fill="#263238" p-id="4724"></path><path d="M185.169231 47.277292h-63.015385a7.876923 7.876923 0 0 1 0-15.753846h63.015385a7.876923 7.876923 0 0 1 0 15.753846z" fill="#263238" p-id="4725"></path><path d="M153.661538 78.784985a7.876923 7.876923 0 0 1-7.876923-7.876923v-63.015385a7.876923 7.876923 0 0 1 15.753847 0v63.015385a7.876923 7.876923 0 0 1-7.876924 7.876923z" fill="#263238" p-id="4726"></path></svg>