<?xml version="1.0" standalone="no"?><!DOCTYPE svg PUBLIC "-//W3C//DTD SVG 1.1//EN" "http://www.w3.org/Graphics/SVG/1.1/DTD/svg11.dtd"><svg t="1682307173805" class="icon" viewBox="0 0 1024 1024" version="1.1" xmlns="http://www.w3.org/2000/svg" p-id="3767" xmlns:xlink="http://www.w3.org/1999/xlink" width="200" height="200"><path d="M163.84 223.4368L663.06048 0 778.24 223.4368 355.81952 409.6z" fill="#85D8FF" p-id="3768"></path><path d="M942.08 409.6h-163.84a81.92 81.92 0 0 0-81.92 81.92v245.76a81.92 81.92 0 0 0 81.92 81.92h163.84v122.88a81.92 81.92 0 0 1-81.92 81.92H81.92a81.92 81.92 0 0 1-81.92-81.92V286.72a81.92 81.92 0 0 1 81.92-81.92h778.24a81.92 81.92 0 0 1 81.92 81.92v122.88z" fill="#4A90E2" p-id="3769"></path><path d="M778.24 450.56h204.8a40.96 40.96 0 0 1 40.96 40.96v245.76a40.96 40.96 0 0 1-40.96 40.96h-204.8a40.96 40.96 0 0 1-40.96-40.96v-245.76a40.96 40.96 0 0 1 40.96-40.96z m81.92 204.8a40.96 40.96 0 1 0 0-81.92 40.96 40.96 0 0 0 0 81.92z" fill="#4A90E2" p-id="3770"></path></svg>